<svg xmlns="http://www.w3.org/2000/svg" viewBox="0 0 460 100">
  <!-- MATTEL wordmark - bold geometric sans-serif matching Mattel brand style -->
  <g fill="#000000">
    <!-- M (0-86) -->
    <path d="M0,100 L0,0 L18,0 L43,50 L68,0 L86,0 L86,100 L68,100 L68,34 L43,78 L18,34 L18,100 Z"/>
    <!-- A (96-172) -->
    <path fill-rule="evenodd" d="M134,0 L172,100 L154,100 L146,74 L122,74 L114,100 L96,100 Z M134,24 L126,56 L142,56 Z"/>
    <!-- T (182-248) -->
    <path d="M182,0 L248,0 L248,18 L224,18 L224,100 L206,100 L206,18 L182,18 Z"/>
    <!-- T (258-324) -->
    <path d="M258,0 L324,0 L324,18 L300,18 L300,100 L282,100 L282,18 L258,18 Z"/>
    <!-- E (334-394) -->
    <path d="M334,0 L394,0 L394,18 L352,18 L352,42 L388,42 L388,58 L352,58 L352,82 L394,82 L394,100 L334,100 Z"/>
    <!-- L (404-456) -->
    <path d="M404,0 L422,0 L422,82 L456,82 L456,100 L404,100 Z"/>
  </g>
</svg>
