<?xml version="1.0" encoding="utf-8"?>
<!-- Generator: Adobe Illustrator 23.0.1, SVG Export Plug-In . SVG Version: 6.00 Build 0)  -->
<svg version="1.1" id="Livello_1" xmlns:svg="http://www.w3.org/2000/svg"
	 xmlns="http://www.w3.org/2000/svg" xmlns:xlink="http://www.w3.org/1999/xlink" x="0px" y="0px" width="629.403px"
	 height="122.1px" viewBox="0 0 629.403 122.1" enable-background="new 0 0 629.403 122.1" xml:space="preserve">
<g>
	<g id="g887" transform="matrix(0.16148102,0,0,-0.15762027,141.14446,152.10547)">
		<path id="path32" fill="#0022AF" d="M776.746,558.404v125.437c7.957,0,24.098,0,31.02,0c36.539,0,53.293-15.617,53.293-38.359
			C861.059,597.353,776.746,558.404,776.746,558.404z M926.102,651.045c0,64.179-58.274,90.609-133.473,90.609h-80.934V404.411
			h65.051v80.742c10.254,7.617,29.66,19.687,48.246,32.43l55.891-113.172h68.414l-73.789,152.742
			C903.527,583.283,926.102,614.814,926.102,651.045"/>
		<path id="path34" fill="#0022AF" d="M1612.336,558.404v125.437c7.95,0,24.09,0,31.01,0c36.54,0,53.3-15.617,53.3-38.359
			C1696.646,597.353,1612.336,558.404,1612.336,558.404z M1761.686,651.045c0,64.179-58.27,90.609-133.47,90.609h-80.94V404.411
			h65.06v80.742c10.25,7.617,29.65,19.687,48.24,32.43l55.89-113.172h68.41l-73.79,152.742
			C1739.116,583.283,1761.686,614.814,1761.686,651.045"/>
		<path id="path36" fill="#0022AF" d="M2254.566,558.404v125.437c7.95,0,24.09,0,31.02,0c36.53,0,53.29-15.617,53.29-38.359
			C2338.876,597.353,2254.566,558.404,2254.566,558.404z M2403.916,651.045c0,64.179-58.27,90.609-133.47,90.609h-80.94V404.411
			h65.06v80.742c10.25,7.617,29.66,19.687,48.24,32.43l55.89-113.172h68.42l-73.79,152.742
			C2381.346,583.283,2403.916,614.814,2403.916,651.045"/>
		<path id="path38" fill="#0022AF" d="M336.793,404.411l84.781,337.243h-65.511l-50.59-231.25h-1.93l-53.469,231.25h-53.965
			l-53.961-231.25h-1.925l-49.629,231.25H23.625l84.801-337.243h61.668l52.031,221.621h1.445l52.028-221.621L336.793,404.411"/>
		<path id="path40" fill="#0022AF" d="M506.137,532.09l34.168,132.493h1.48l34.68-132.493H506.137z M506.137,741.654
			l-101.18-337.243h68.391l20.734,77.07h94.438l20.683-77.07h67.981l-99.746,337.243H506.137"/>
		<path id="path42" fill="#0022AF" d="M1164.325,536.903l-126.21,204.75H983.66V404.411h65.045v204.75h2.4l126.24-204.75h54.43
			v337.243h-65.03v-204.75H1164.325"/>
		<path id="path44" fill="#0022AF" d="M1499.136,464.633h-134.88v84.309h101.17v55.41h-101.17v77.078h130.08v60.223h-195.13V404.411
			h199.93V464.633"/>
		<path id="path46" fill="#0022AF" d="M2567.696,688.611c48.21,0,62.31-58.527,62.31-115.629c0-57.051-14.1-115.621-62.31-115.621
			c-48.16,0-62.26,58.57-62.26,115.621C2505.436,630.084,2519.536,688.611,2567.696,688.611z M2567.696,397.141
			c86.72,0,127.32,82.071,127.32,175.84c0,93.672-40.6,175.891-127.32,175.891s-127.32-82.219-127.32-175.891
			C2440.376,479.212,2480.976,397.141,2567.696,397.141"/>
		<path id="path48" fill="#0022AF" d="M2845.396,599.513c-26.51,16.86-53.26,28.899-53.26,57.809c0,19.281,17.12,33.73,36.39,33.73
			c21.68,0,43.63-14.449,50.84-26.5l40.96,38.551c-19.27,26.5-53.25,45.77-94.21,45.77c-60.23,0-99.02-36.129-99.02-91.551
			c0-60.219,43.62-86.719,78.78-106.957c27.47-15.891,54.23-27.953,54.23-56.852c0-24.101-21.94-38.55-46.03-38.55
			c-24.1,0-48.44,14.449-62.89,36.14l-38.55-38.551c21.69-33.718,65.31-55.41,103.85-55.41c60.23,0,108.66,38.551,108.66,96.371
			C2925.146,553.732,2880.086,577.822,2845.396,599.513"/>
		<path id="path50" fill="#0022AF" d="M2987.496,471.833c-21.68,0-36.14-16.86-36.14-36.129c0-19.274,14.46-36.133,36.14-36.133
			c21.67,0,36.13,16.859,36.13,36.133C3023.626,454.973,3009.166,471.833,2987.496,471.833"/>
		<path id="path52" fill="#0022AF" d="M1981.876,464.141v70.242c21.25,8.469,44.77,19.489,66.33,33.047
			c10.11-6.75,32.51-24.519,32.51-49.41C2080.716,485.102,2050.586,465.481,1981.876,464.141L1981.876,464.141z M1981.876,685.341
			c8.04,0,23.28,0,31.6,0c29.85,0,45.16-7.828,45.16-24.718c0-30.399-63.86-57.539-76.76-62.711V685.341z M2091.846,602.474
			c17.45,18.77,28.85,40.5,28.85,65.188c0,48.281-41.23,73.383-100.39,73.992h-103.49V404.411h65.06
			c105.91,3.113,160.49,46.011,160.49,111.109C2142.366,563.802,2101.726,595.482,2091.846,602.474"/>
	</g>
	<g>
		
			<linearGradient id="SVGID_1_" gradientUnits="userSpaceOnUse" x1="-530.9" y1="427.8896" x2="-420.6" y2="427.8896" gradientTransform="matrix(1 0 0 -1 539 488.4396)">
			<stop  offset="0" style="stop-color:#4047FF"/>
			<stop  offset="1" style="stop-color:#04006C"/>
		</linearGradient>
		<path fill="url(#SVGID_1_)" d="M118.4,39.8c-0.8,5.7-3.5,24.5-17.3,42.9c-14,19-32.3,28.2-37.9,31c-5.5-2.8-23.9-12-37.9-31
			C11.6,64.4,8.9,45.6,8.1,39.8l8.3-4.5v-6.2l8.3-4.5v-6.2c11.4-5.5,24-9,38.5-11c14.5,1.9,27.1,5.5,38.5,11v6.2l8.3,4.5v6.2
			L118.4,39.8z"/>
		<path fill="#FFC200" d="M117.5,30.9v-6.2l-8.3-4.5v-6.5l-4.2-2C92.9,6,79.6,2.2,64.2,0.1l-1-0.1l-1,0.1C46.9,2.2,33.5,6,21.5,11.8
			l-4.2,2v6.5L9,24.7v6.2l-9,4.8l0.7,5.1C3.1,58,9.4,73.6,19.4,87.1c10.1,13.7,23.7,24.9,40.5,33.3l3.3,1.7l3.3-1.7
			c16.8-8.4,30.4-19.6,40.5-33.3c10-13.5,16.3-29.1,18.7-46.3l0.7-5.1C126.4,35.7,117.5,30.9,117.5,30.9z M118.4,39.8
			c-0.8,5.7-3.5,24.5-17.3,42.9c-14,19-32.3,28.2-37.9,31c-5.5-2.8-23.9-12-37.9-31C11.6,64.4,8.9,45.6,8.1,39.8l8.3-4.5v-6.2
			l8.3-4.5v-6.2c11.4-5.5,24-9,38.5-11c14.5,1.9,27.1,5.5,38.5,11v6.2l8.3,4.5v6.2L118.4,39.8z"/>
		<path fill="#FFC200" d="M50.9,22.4l0.4,50.5l-0.4,0.2c-5.3-13.5-8.5-30.3-9.5-47.2c-2.6,1.2-5.4,2.6-8.3,4.4
			c1.2,15.3,3.8,28.7,8.5,41.5l-2.7,1.5c-7.1-9.9-11.7-21.9-14.8-36.2c-2.2,2-4.3,4.2-6.5,6.6c4.1,17.1,10.7,30.1,20.2,40.6l7.3-4.4
			c3.6,7.5,8.6,14.9,14.2,20.8V20.9C56.5,21.2,53.7,21.7,50.9,22.4z M98.1,48.5c3-3.3,3.6-5.7,3.6-8.6c0-4.1-3.4-7.8-8.4-11
			c-3-1.9-7.6-4.2-14.3-6.1c-3.8-1-7.9-1.7-12-1.8v79.9c16.8-8.6,36.7-32.3,36.8-44.4C104,52.8,102.1,50.4,98.1,48.5z M75.4,30.5
			c4.1,0,17.5,4.2,17.5,9.6c0,1.9-1.7,4.7-7,7.5l-10.5,5.6V30.5z M85.8,74.8c-2.4,2.7-6.2,6.9-10.4,10.1V62c0,0,15.2-8.5,15.7-8.9
			c4.5,1.2,4.3,4.5,4.3,4.8C95.4,62.1,91.1,68.6,85.8,74.8z"/>
	</g>
</g>
</svg>
